<svg width="17" height="18" viewBox="0 0 17 18" fill="none" xmlns="http://www.w3.org/2000/svg">
<path d="M6.11236 16.3965V13.8484C6.11236 13.1979 6.64352 12.6706 7.29874 12.6706H9.69388C10.0085 12.6706 10.3103 12.7947 10.5328 13.0156C10.7553 13.2364 10.8803 13.536 10.8803 13.8484V16.3965C10.8783 16.6669 10.9851 16.9269 11.177 17.1188C11.3689 17.3107 11.6301 17.4187 11.9025 17.4187H13.5366C14.2997 17.4206 15.0323 17.1211 15.5727 16.586C16.113 16.051 16.4167 15.3245 16.4167 14.5669V7.30773C16.4167 6.69573 16.1434 6.11522 15.6706 5.72257L10.1117 1.31524C9.14476 0.542482 7.7593 0.567433 6.8212 1.3745L1.38922 5.72257C0.893991 6.10364 0.598001 6.68588 0.583374 7.30773V14.5595C0.583374 16.1386 1.87286 17.4187 3.46352 17.4187H5.06028C5.62606 17.4187 6.08587 16.9655 6.08997 16.4039L6.11236 16.3965Z" fill="white"/>
</svg>
